# xmcd
#
# Track frame offsets: 
#        150
#        17856
#        37588
#        59124
#        78099
#        98029
#        114269
#        133754
#        151941
#        171336
#        190739
#        212347
#        230316
#        250154
#        266206
#
# Disc length: 3827 seconds
#
# Revision: 2
# Processed by: cddbd v1.5.2PL0 Copyright (c) Steve Scherf et al.
# Submitted via: ExactAudioCopy v1.0b3
#
DISCID=bd0ef10f
DTITLE=梦之旅演唱组合 - 流淌的歌声 11
DYEAR=2002
DGENRE=Folk
TTITLE0=吐鲁番的葡萄熟了
TTITLE1=爸爸的草鞋
TTITLE2=月光下的凤尾竹
TTITLE3=社员都是向阳花
TTITLE4=神奇的九寨
TTITLE5=深深的海洋
TTITLE6=读你
TTITLE7=红梅赞
TTITLE8=鼓浪屿之歌
TTITLE9=把悲伤留给自己
TTITLE10=山楂树
TTITLE11=边疆的泉水清又纯
TTITLE12=最浪漫的事
TTITLE13=莎里楠蒂
TTITLE14=又见彩虹
EXTD=
EXTT0=
EXTT1=
EXTT2=
EXTT3=
EXTT4=
EXTT5=
EXTT6=
EXTT7=
EXTT8=
EXTT9=
EXTT10=
EXTT11=
EXTT12=
EXTT13=
EXTT14=
PLAYORDER=
